# xmcd CD database file
#
# Track frame offsets:
#	150
#	24641
#	44142
#	65258
#	100178
#	123027
#	141367
#	202036
#	235806
#	265108
#
# Disc length: 3926 seconds
#
# Revision: 0
# Processed by: cddbd v1.5.2PL0 Copyright (c) Steve Scherf et al.
# Submitted via: CDex 1.70beta2
#
DISCID=8e0f540a
DTITLE=Milt Jackson - bags of soul - 2 opus de funk
DYEAR=2007
DGENRE=Jazz
TTITLE0=Milt Jackson Quartet - Wonder Why
TTITLE1=Milt Jackson Qartet - I Should Care
TTITLE2=Milt Jackson Quartet - My funny Valentine
TTITLE3=Milt Jackson Quartet - Stonewall
TTITLE4=Milt Jackson Quartet - Moonray
TTITLE5=Milt Jackson Quartet - The Nearness of You
TTITLE6=Milt Jackson Quartet - Opus de Funk
TTITLE7=Milt Jackson Quaintet - Opus Pocus
TTITLE8=Milt Jackson Quartet - You Leave Me Breathless
TTITLE9=Milt Jackson Quartet - Opus and Interlude
EXTD=YEAR: 2007
EXTT0=
EXTT1=
EXTT2=
EXTT3=
EXTT4=
EXTT5=
EXTT6=
EXTT7=
EXTT8=
EXTT9=
PLAYORDER=
